<?xml version="1.0" standalone="no"?>
<!DOCTYPE svg PUBLIC "-//W3C//DTD SVG 20010904//EN"
 "http://www.w3.org/TR/2001/REC-SVG-20010904/DTD/svg10.dtd">
<svg version="1.0" xmlns="http://www.w3.org/2000/svg"
 width="256.000000pt" height="256.000000pt" viewBox="0 0 256.000000 256.000000"
 preserveAspectRatio="xMidYMid meet">
<metadata>
Created by potrace 1.11, written by Peter Selinger 2001-2013
</metadata>
<g transform="translate(0.000000,256.000000) scale(0.100000,-0.100000)"
fill="#000000" stroke="none">
<path d="M0 1280 l0 -1280 1280 0 1280 0 0 1280 0 1280 -1280 0 -1280 0 0
-1280z m1990 850 c0 -5 14 -10 30 -10 17 0 30 -4 30 -10 0 -5 7 -10 15 -10 8
0 15 -4 15 -9 0 -5 9 -13 20 -16 11 -3 20 -15 20 -26 0 -10 5 -19 10 -19 6 0
10 -9 10 -20 0 -11 5 -20 10 -20 7 0 10 -280 10 -820 0 -451 -2 -820 -5 -820
-7 0 -30 19 -58 48 -12 12 -37 37 -56 56 -54 55 -72 72 -108 109 -19 19 -39
39 -44 43 -5 5 -22 23 -38 41 l-28 32 -678 3 c-532 2 -679 6 -683 16 -2 6 -10
12 -18 12 -23 0 -61 43 -69 78 -3 18 -11 32 -16 32 -5 0 -9 235 -9 585 0 383
3 585 10 585 6 0 10 13 10 30 0 16 7 35 15 42 9 7 22 19 30 26 7 6 21 12 29
12 9 0 16 5 16 10 0 6 11 10 25 10 14 0 25 5 25 10 0 7 253 10 740 10 487 0
740 -3 740 -10z"/>
<path d="M690 1680 l0 -90 560 0 560 0 0 90 0 90 -560 0 -560 0 0 -90z"/>
<path d="M690 1410 l0 -90 560 0 560 0 0 90 0 90 -560 0 -560 0 0 -90z"/>
<path d="M690 1135 l0 -95 560 0 560 0 0 95 0 95 -560 0 -560 0 0 -95z"/>
</g>
</svg>
